<svg id="Microsoft_Azure" data-name="Microsoft Azure" xmlns="http://www.w3.org/2000/svg" xmlns:xlink="http://www.w3.org/1999/xlink" width="147.269" height="21" viewBox="0 0 147.269 21">
  <defs>
    <clipPath id="clip-path">
      <rect id="Rectangle_2798" data-name="Rectangle 2798" width="147.269" height="21" fill="none"/>
    </clipPath>
  </defs>
  <path id="Path_16007" data-name="Path 16007" d="M358.518,14.4l4.952,12.235h-2.512l-1.165-3.037h-5.181l-1.119,3.037H351L355.95,14.4Zm-1.357,2.27-1.944,5.153h3.943l-1.935-5.153Z" transform="translate(-249.015 -10.014)"/>
  <path id="Path_16008" data-name="Path 16008" d="M394.818,26.628h7.309v.863l-4.8,6.579h4.825v1.709H394.48V34.755l4.727-6.418h-4.389Z" transform="translate(-279.692 -19.116)"/>
  <g id="Group_2941" data-name="Group 2941" transform="translate(0 0)">
    <g id="Group_2940" data-name="Group 2940" transform="translate(0 0)" clip-path="url(#clip-path)">
      <path id="Path_16009" data-name="Path 16009" d="M431.776,26.628v9.033h-2.144V34.475H429.6a2.876,2.876,0,0,1-1.129.963,3.553,3.553,0,0,1-1.586.347,3.092,3.092,0,0,1-2.394-.892,3.987,3.987,0,0,1-.822-2.772V26.628h2.153v5.237a2.747,2.747,0,0,0,.453,1.718,1.631,1.631,0,0,0,1.367.575,1.813,1.813,0,0,0,1.45-.637,2.474,2.474,0,0,0,.545-1.665V26.628Z" transform="translate(-300.093 -18.861)"/>
      <path id="Path_16010" data-name="Path 16010" d="M462.607,26.116a2.693,2.693,0,0,1,.457.035,1.959,1.959,0,0,1,.343.088v2.153a1.849,1.849,0,0,0-.488-.233,2.416,2.416,0,0,0-.778-.11,1.651,1.651,0,0,0-1.323.659,3.167,3.167,0,0,0-.54,2.03V35.3h-2.127V26.265h2.127v1.424h.035a2.493,2.493,0,0,1,.878-1.156,2.383,2.383,0,0,1,1.415-.417" transform="translate(-324.521 -18.499)"/>
      <path id="Path_16011" data-name="Path 16011" d="M484.057,32.938v1.749a4.615,4.615,0,0,1-1.38.54,7.7,7.7,0,0,1-1.819.207,4.19,4.19,0,0,1-3.212-1.222,4.774,4.774,0,0,1-1.147-3.4,4.963,4.963,0,0,1,1.226-3.458A4,4,0,0,1,480.832,26a3.736,3.736,0,0,1,2.913,1.147,4.54,4.54,0,0,1,1.041,3.168v1.028H478.6a2.562,2.562,0,0,0,.874,1.9,3.113,3.113,0,0,0,1.894.54,4.558,4.558,0,0,0,1.459-.233,4.743,4.743,0,0,0,1.23-.611m-1.362-3.155a2.362,2.362,0,0,0-.488-1.608,1.736,1.736,0,0,0-1.375-.554,1.988,1.988,0,0,0-1.371.549,2.808,2.808,0,0,0-.808,1.612Z" transform="translate(-337.517 -18.414)"/>
      <path id="Path_16012" data-name="Path 16012" d="M107.234,12.136v12.6h-2.188V14.86h-.035l-3.91,9.876h-1.45L95.644,14.86h-.026v9.876H93.6v-12.6h3.137l3.62,9.341h.053l3.822-9.341Zm1.83.958a1.158,1.158,0,0,1,.382-.883,1.29,1.29,0,0,1,.909-.356,1.271,1.271,0,0,1,.931.365,1.186,1.186,0,0,1,.369.874,1.141,1.141,0,0,1-.378.87,1.3,1.3,0,0,1-.923.351,1.28,1.28,0,0,1-.918-.356,1.151,1.151,0,0,1-.374-.866m2.346,11.642h-2.126V15.7h2.126Zm6.449-1.546a2.933,2.933,0,0,0,1.046-.22,4.393,4.393,0,0,0,1.054-.58v1.977a4.26,4.26,0,0,1-1.156.439,6.287,6.287,0,0,1-1.419.149,4.3,4.3,0,0,1-4.49-4.481,5.15,5.15,0,0,1,1.274-3.59,4.615,4.615,0,0,1,3.611-1.41,4.94,4.94,0,0,1,1.208.154,4.044,4.044,0,0,1,.971.356v2.039a4.349,4.349,0,0,0-1.006-.558,2.907,2.907,0,0,0-1.05-.2,2.665,2.665,0,0,0-2.03.817,3.077,3.077,0,0,0-.774,2.206,2.935,2.935,0,0,0,.743,2.135,2.68,2.68,0,0,0,2.017.764m8.154-7.636a2.7,2.7,0,0,1,.457.035,1.913,1.913,0,0,1,.343.088V17.83a1.863,1.863,0,0,0-.488-.233,2.416,2.416,0,0,0-.778-.11,1.651,1.651,0,0,0-1.322.659,3.166,3.166,0,0,0-.54,2.03v4.56h-2.127V15.7h2.127v1.423h.035a2.491,2.491,0,0,1,.879-1.155,2.384,2.384,0,0,1,1.415-.417m.915,4.8a4.892,4.892,0,0,1,1.265-3.55,4.66,4.66,0,0,1,3.515-1.309,4.33,4.33,0,0,1,3.308,1.261,4.759,4.759,0,0,1,1.191,3.4,4.8,4.8,0,0,1-1.265,3.5,4.582,4.582,0,0,1-3.444,1.3,4.505,4.505,0,0,1-3.335-1.234,4.553,4.553,0,0,1-1.235-3.37m2.214-.07a3.227,3.227,0,0,0,.642,2.162,2.287,2.287,0,0,0,1.836.747,2.141,2.141,0,0,0,1.766-.747,3.454,3.454,0,0,0,.606-2.214,3.334,3.334,0,0,0-.628-2.2,2.181,2.181,0,0,0-1.761-.742,2.228,2.228,0,0,0-1.815.778,3.385,3.385,0,0,0-.646,2.219m10.228-2.206a.912.912,0,0,0,.29.716,4.954,4.954,0,0,0,1.283.654,4.352,4.352,0,0,1,1.788,1.147,2.378,2.378,0,0,1,.514,1.542,2.479,2.479,0,0,1-.98,2.047,4.162,4.162,0,0,1-2.649.773,6.372,6.372,0,0,1-1.243-.136,5.521,5.521,0,0,1-1.155-.347V22.382a5.234,5.234,0,0,0,1.248.641,3.652,3.652,0,0,0,1.212.237,2.159,2.159,0,0,0,1.063-.2.722.722,0,0,0,.343-.676.939.939,0,0,0-.356-.743,5.267,5.267,0,0,0-1.349-.7,4.167,4.167,0,0,1-1.67-1.107,2.424,2.424,0,0,1-.492-1.564,2.471,2.471,0,0,1,.971-2.008,3.874,3.874,0,0,1,2.517-.786,6.083,6.083,0,0,1,1.063.105,4.711,4.711,0,0,1,.984.272v2.021a4.54,4.54,0,0,0-.984-.483,3.283,3.283,0,0,0-1.116-.2,1.625,1.625,0,0,0-.944.237.752.752,0,0,0-.338.65m4.788,2.276a4.892,4.892,0,0,1,1.265-3.55,4.659,4.659,0,0,1,3.515-1.309,4.331,4.331,0,0,1,3.308,1.261,4.759,4.759,0,0,1,1.191,3.4,4.8,4.8,0,0,1-1.265,3.5,4.583,4.583,0,0,1-3.445,1.3,4.5,4.5,0,0,1-3.334-1.234,4.553,4.553,0,0,1-1.235-3.37m2.214-.07a3.229,3.229,0,0,0,.641,2.162,2.288,2.288,0,0,0,1.836.747,2.141,2.141,0,0,0,1.766-.747,3.454,3.454,0,0,0,.606-2.214,3.334,3.334,0,0,0-.628-2.2,2.182,2.182,0,0,0-1.762-.742,2.227,2.227,0,0,0-1.814.778,3.385,3.385,0,0,0-.646,2.219m14.119-2.838h-3.167v7.293h-2.153V17.444h-1.511V15.7h1.511V14.447a3.126,3.126,0,0,1,.927-2.333,3.251,3.251,0,0,1,2.377-.909,5.305,5.305,0,0,1,.685.039,2.732,2.732,0,0,1,.527.119V13.2a2.21,2.21,0,0,0-.369-.149,1.924,1.924,0,0,0-.606-.088,1.285,1.285,0,0,0-1.028.417,1.842,1.842,0,0,0-.36,1.234V15.7h3.167v-2.03l2.135-.65V15.7h2.153v1.74h-2.153V21.67a1.782,1.782,0,0,0,.3,1.177,1.21,1.21,0,0,0,.953.343,1.422,1.422,0,0,0,.444-.088,2.094,2.094,0,0,0,.453-.211v1.757a2.5,2.5,0,0,1-.672.211,4.592,4.592,0,0,1-.927.1,2.636,2.636,0,0,1-2.017-.716,3.051,3.051,0,0,1-.672-2.157Z" transform="translate(-66.297 -7.937)"/>
      <rect id="Rectangle_2790" data-name="Rectangle 2790" width="9.98" height="9.98" transform="translate(0 0)" fill="#f25022"/>
      <rect id="Rectangle_2791" data-name="Rectangle 2791" width="9.98" height="9.98" transform="translate(11.019 0)" fill="#7fba00"/>
      <rect id="Rectangle_2792" data-name="Rectangle 2792" width="9.98" height="9.98" transform="translate(0 11.019)" fill="#00a4ef"/>
      <rect id="Rectangle_2793" data-name="Rectangle 2793" width="9.98" height="9.98" transform="translate(11.019 11.019)" fill="#ffb900"/>
      <rect id="Rectangle_2794" data-name="Rectangle 2794" width="9.98" height="9.98" transform="translate(0 0)" fill="#f25022"/>
      <rect id="Rectangle_2795" data-name="Rectangle 2795" width="9.98" height="9.98" transform="translate(11.019 0)" fill="#7fba00"/>
      <rect id="Rectangle_2796" data-name="Rectangle 2796" width="9.98" height="9.98" transform="translate(0 11.019)" fill="#00a4ef"/>
      <rect id="Rectangle_2797" data-name="Rectangle 2797" width="9.98" height="9.98" transform="translate(11.019 11.019)" fill="#ffb900"/>
    </g>
  </g>
</svg>
